<?xml version="1.0" encoding="UTF-8"?>
<svg id="Layer_2" data-name="Layer 2" xmlns="http://www.w3.org/2000/svg" viewBox="0 0 803.12 803.12">
  <g id="Layer_1-2" data-name="Layer 1">
    <g>
      <path d="m463.12,42.43l297.57,297.57-397.82,397.82c-22.76,22.76-53.02,35.3-85.21,35.3s-62.45-12.54-85.21-35.3l-127.15-127.15c-22.76-22.76-35.3-53.02-35.3-85.21s12.54-62.45,35.3-85.21L463.12,42.43m0-42.43L44.08,419.03c-58.78,58.78-58.78,154.07,0,212.85l127.15,127.15c29.39,29.39,67.91,44.08,106.43,44.08s77.04-14.69,106.43-44.08l419.03-419.03L463.12,0h0Z"/>
      <path d="m463.12,42.43l297.57,297.57-263.3,263.3L199.82,305.72,463.12,42.43M463.12,0L157.39,305.72l340,340,305.72-305.72L463.12,0h0Z"/>
    </g>
  </g>
</svg>